# xmcd
#
# Track frame offsets: 
#        187
#        27543
#        58763
#        89332
#        115535
#        146812
#
# Disc length: 2196 seconds
#
# Revision: 3
# Processed by: cddbd v1.5.2PL0 Copyright (c) Steve Scherf et al.
# Submitted via: ExactAudioCopy v1.3
#
DISCID=50089206
DTITLE=Gerry Mulligan - Little Big Horn
DYEAR=1983
DGENRE=Jazz
TTITLE0=Little Big Horn
TTITLE1=Under A Star
TTITLE2=Sun On The Stairs
TTITLE3=Another Kind Of Sunday
TTITLE4=Bright Angel Falls
TTITLE5=I Never Was A Young Man
EXTD=
EXTT0=
EXTT1=
EXTT2=
EXTT3=
EXTT4=
EXTT5=
PLAYORDER=
